<?xml version="1.0" encoding="utf-8"?>
<!-- Generator: Adobe Illustrator 21.1.0, SVG Export Plug-In . SVG Version: 6.00 Build 0)  -->
<svg version="1.1" id="Layer_1" xmlns="http://www.w3.org/2000/svg" xmlns:xlink="http://www.w3.org/1999/xlink" x="0px" y="0px"
	 viewBox="0 0 113.5 113.5" style="enable-background:new 0 0 113.5 113.5;" xml:space="preserve">
<style type="text/css">
	.st0{opacity:0.52;fill:#FFFFFF;}
	.st1{fill:#6B6C6D;}
	.st2{fill:#DE134C;}
	.st3{fill:#606060;}
</style>
<title>Asset 2</title>
<circle class="st0" cx="56.5" cy="57" r="56.8"/>
<path class="st1" d="M22.2,70.8V64c0-0.2,0-0.3,0-0.5c0.2-0.6,0.9-1,1.6-0.7c0.1,0,0.1,0.1,0.2,0.1c0.4,0.2,0.7,0.6,0.6,1.1v6.7
	c0,0.2,0,0.4,0,0.7c-0.1,0.5-0.6,0.9-1.1,0.8C22.7,72.3,22.2,71.8,22.2,70.8 M22,60.9c0-0.7,0.5-1.3,1.2-1.3s1.3,0.5,1.3,1.2l0,0
	c0,0.5-0.2,1-0.7,1.2c-0.6,0.3-1.4,0-1.7-0.6l0,0C22,61.3,22,61.1,22,60.9z"/>
<path class="st1" d="M26.8,70.9v-6.8c-0.1-0.4,0.1-0.9,0.5-1.1c0.5-0.4,1.2-0.3,1.6,0.3l0.1,0.1v0.1l0,0v-0.1h0.1l0.1-0.1l0.1-0.1
	c0.6-0.4,1.2-0.5,1.9-0.4c0.6,0,1.3,0.3,1.7,0.8l0.2,0.2h0.1l0.1-0.1l0.1-0.1l0.1-0.1c0.6-0.4,1.3-0.7,2.1-0.7
	c1.6-0.3,3.1,0.8,3.4,2.3c0,0.2,0.1,0.4,0,0.5v5.1c0,0.2,0,0.4,0,0.6c-0.1,0.6-0.6,1-1.2,0.9c-0.7,0-1.3-0.6-1.3-1.3
	c0-0.1,0-0.1,0-0.2V66c0-0.1,0-0.1,0-0.2c-0.1-0.5-0.5-0.9-1-0.9c-0.6-0.1-1.2,0.3-1.3,0.9v0.1v4.9c0.1,0.7-0.4,1.3-1.1,1.4
	c-0.7,0.1-1.3-0.4-1.4-1.1c0-0.1,0-0.1,0-0.2V66c0.1-0.5-0.3-1-0.9-1.1c-0.1,0-0.3,0-0.4,0c-0.4,0-0.8,0.3-1,0.7
	c-0.1,0.2-0.1,0.4-0.1,0.6v4.7c0,0.2,0,0.4-0.1,0.5c-0.2,0.7-0.9,1-1.6,0.8c-0.1,0-0.2-0.1-0.3-0.2C27,71.8,26.7,71.3,26.8,70.9"/>
<path class="st1" d="M43.7,67.4c0-0.1,0-0.3,0-0.4c0.1-1.5,0.4-2.1,1.1-2.2c1.2-0.3,1.8,0.4,1.8,2.6c0,1.9-0.5,2.5-1.5,2.5
	s-1.4-0.6-1.5-2C43.7,67.7,43.7,67.5,43.7,67.4 M41.9,74.7c0.6,0.3,1.4,0.1,1.7-0.5c0,0,0-0.1,0.1-0.1c0-0.2,0.1-0.3,0.1-0.5V72
	v-0.3v-0.1l0,0l0.2,0.1l0,0l0.1,0.1l0.1,0.1h0.1c1,0.4,2.1,0.4,3-0.1c1.2-0.6,1.8-1.6,1.9-3.5c0.3-3.7-0.7-5.3-2.8-5.7
	c-0.9-0.2-1.9,0-2.7,0.5l-0.1,0.1h-0.1v-0.1V63v0l0,0c-0.4-0.5-1.1-0.6-1.6-0.2c-0.4,0.2-0.5,0.5-0.5,1.1v9.7
	C41.2,74.1,41.4,74.5,41.9,74.7L41.9,74.7z"/>
<path class="st1" d="M55.9,66.2h-2.4c-0.1,0-0.1-0.1,0-0.4c0-0.1,0.1-0.3,0.2-0.4l0.1-0.2c0.2-0.2,0.4-0.4,0.7-0.4
	c0.6-0.2,1.3,0.1,1.6,0.7c0,0.1,0.1,0.2,0.1,0.3c0,0.3,0,0.4,0,0.4H55.9 M58.6,66c-0.2-2.4-1.9-3.7-4.7-3.2c-1.7,0.3-3,1.7-3,3.5
	c-0.5,4.3,1.4,6.4,4.5,6c2-0.3,3-1.3,3-2.1c0-0.5-0.4-1-0.9-1.1c-0.3-0.1-0.6,0-1.1,0.4c-1.2,1-2.6,0.7-3-0.3c0-0.1-0.1-0.2-0.1-0.2
	c-0.1-0.3,0-0.5,0-0.5h4.2C58.6,68.4,58.8,68.1,58.6,66z"/>
<path class="st1" d="M60.5,71v-7.2c0-0.6,0.4-1.2,1.1-1.2c0.1,0,0.3,0,0.4,0.1c0.4,0.1,0.6,0.2,0.7,0.5v0.1l0,0l0.1-0.1l0.1-0.1H63
	l0.1-0.1c0.2-0.2,0.5-0.3,0.8-0.4c0.8-0.3,1.7,0.1,2.1,0.9c0.2,1-0.4,1.5-1.9,1.4c-0.1,0-0.2,0-0.3,0C63.2,65.1,63,65.5,63,66v0.2
	v4.9c0,0.5-0.2,0.9-0.7,1.1c-0.6,0.3-1.3,0.2-1.7-0.4C60.5,71.5,60.5,71.3,60.5,71"/>
<path class="st1" d="M67,70.8V64c0-0.2,0-0.3,0.1-0.5c0.2-0.6,0.9-1,1.6-0.8c0.1,0,0.1,0.1,0.2,0.1c0.4,0.2,0.7,0.6,0.6,1.1v6.7
	c0,0.2,0,0.4,0,0.7c-0.1,0.5-0.6,0.9-1.1,0.8C67.6,72.3,67,71.8,67,70.8 M66.9,60.9c0-0.7,0.5-1.3,1.2-1.3s1.3,0.5,1.3,1.2
	c0,0.5-0.2,1-0.7,1.2c-0.6,0.3-1.4,0-1.7-0.6l0,0C66.9,61.3,66.9,61.1,66.9,60.9L66.9,60.9z"/>
<path class="st1" d="M71.7,69.2V64c0-1,0.3-1.4,1.1-1.5c0.6-0.1,1.2,0.3,1.3,0.9c0,0.1,0,0.2,0,0.4v4.8c0,1.1,0.6,1.6,1.6,1.4
	c0.3-0.1,0.5-0.2,0.7-0.4c0.2-0.3,0.4-0.7,0.3-1.1v-4.6c-0.1-0.6,0.4-1.2,1-1.3h0.1c0.7-0.1,1.2,0.4,1.3,1.1c0,0.1,0,0.1,0,0.2v6.9
	c0.1,0.5-0.2,1-0.6,1.2c-0.5,0.2-1.1,0.1-1.4-0.2l0,0L77,71.7l-0.1-0.1h-0.1l-0.1,0.1h-0.1l-0.1,0.1c-0.1,0.1-0.2,0.1-0.2,0.2
	c-0.7,0.3-1.5,0.4-2.2,0.2c-1.2-0.2-2.2-1.1-2.3-2.4c0-0.2,0-0.3,0-0.5"/>
<path class="st1" d="M81.2,70.9v-6.8c-0.1-0.6,0.4-1.2,1-1.3c0.5,0,0.9,0.2,1.1,0.6v0.1l0,0l0.1-0.1h0.1l0.1-0.1l0.1-0.1
	c0.6-0.4,1.2-0.5,1.9-0.4c0.6,0,1.3,0.3,1.7,0.8l0.2,0.2h0.1l0.1-0.1l0.1-0.1l0.1-0.1c0.6-0.4,1.3-0.7,2.1-0.7
	c1.6-0.2,3.1,0.8,3.4,2.4c0,0.2,0.1,0.4,0.1,0.5v5.1c0,0.2,0,0.4,0,0.6c-0.1,0.6-0.6,1-1.2,0.9c-0.7,0-1.3-0.6-1.2-1.3
	c0-0.1,0-0.2,0-0.3V66c0-0.1,0-0.1,0-0.2c-0.1-0.5-0.5-0.9-1-0.9c-0.6-0.1-1.2,0.3-1.3,0.9v0.1v4.9c0.1,0.7-0.4,1.3-1.1,1.4
	s-1.3-0.4-1.4-1.1c0-0.1,0-0.1,0-0.2V66c0.1-0.5-0.3-1-0.9-1.1c-0.1,0-0.3,0-0.4,0c-0.4,0-0.8,0.3-1,0.7c-0.1,0.2-0.1,0.4-0.1,0.6
	v4.7c0,0.2,0,0.4-0.1,0.5c-0.2,0.7-0.9,1-1.6,0.8c-0.1,0-0.2-0.1-0.3-0.2C81.4,71.8,81.2,71.3,81.2,70.9"/>
<path class="st2" d="M24.1,56c-0.5-0.8-0.9-1.8-1.3-2.6c0.4-3,0.2-6.1,1.4-9c0.4-0.7,0.8-1.3,1.4-1.8c0.9-1.4,1.4-2.8,2.2-4.3
	c0.5-0.9,1.2-1.6,1.8-2.5c0.2-0.8,0.4-1.6,0.7-2.4c0.2-0.3,0.7-0.4,1-0.8c0.9-1.4,2.2-2.1,3-3.5c0.8-0.2,1.5-0.9,1.7-1.7
	c0-0.8,0.5-1.1,1.4-1.6c0.2-0.1,0.4-0.7,0.6-0.7c1.3-0.1,2.6,0.1,3.9-0.1c0.8-0.2,1.7-0.2,2.5-0.4c0.8,0.1,1.6,0.1,2.4,0
	c1.6-0.3,3-0.8,4.4-1.2c0.4-1,1.6-0.6,2.4-0.6c0.4-0.1,0.5-0.4,0.7-0.7c0.6-0.3,1.3-0.1,1.9,0l1.5,0.4c2.7,0.7,5.5,0.2,7.8,1.8
	c1.5,0.3,3.2,0.3,4.7,0.6c0.5,0.1,1,0.2,1.4,0.4c0.4,0.1,0.8,0.3,1.2,0.5c0.6,0.5,1.4,0.9,2.2,1c1.2,0.4,2,1.3,3.1,2
	c0.3,0.3,0.5,0.6,0.7,1c0.3,0.3,0.6,0.6,1,0.7c0.8,0.3,1.6,0.8,2.5,1s0.8,1,1.1,1.5c0.7,0.8,2,1.1,2.3,2c0.4,0.8,0.7,1.7,0.9,2.6
	c0,0.7,0.1,1.5,0.3,2.2c0.2,0.6,0.4,1.2,0.8,1.8c1,1.2,2.6,1.7,3.2,3.2l0.3,0.4c1,1.5,1.1,3.2,1.5,4.8c0,0.3,0,0.6,0,0.9
	c0.3,0.7,0.6,1.5,0.8,2.2l-2.9,1.6c-0.3-0.5-0.6-1.1-0.9-1.5c0.3-1.2-0.2-2.3,0-3.5c-0.8-1.1-1.2-2.5-2.6-2.9
	c-0.3-0.5-0.5-1-0.7-1.5c-0.2-1.1-0.6-2.1-1.2-3c-0.8-1.2-1.8-2.3-1.6-3.7c0-0.1-0.2-0.2-0.4-0.2c-0.6-0.1-0.7-0.5-1.3-0.7
	s-0.7-0.6-1.2-1c-0.2-0.2-0.4-0.6-0.7-0.8c-1-0.8-1.8-1.7-2.5-2.8c-2.2-1.6-4.6-3-7.5-3.3c-1.1-0.8-2.3-1.5-3.5-2.1
	c-0.9-0.3-1.8-0.6-2.8-0.7c-3.1-0.3-5.5-0.4-8.6-0.5c-1.1,0-2.4,0.7-4.2,1.1c-0.7,0.2-1.4,0-2.1,0.2c-1.8,0.4-3.6,0.6-5.4,1
	c-0.6,0.8-0.7,1.8-1.5,2.3c-1.1,0.6-2.4,0.6-3.5,1.3c-1.3,1-2.6,2.4-3.9,3.5c-0.6,0-1,0.5-1.2,1c-0.7,1.3-1.5,2.6-2.5,3.7
	c-0.4,0.4-0.6,0.9-0.7,1.4c-0.5,1.1-1.2,2.2-2,3.2c-0.2,0.2-0.2,0.4-0.3,0.6c-0.1,1.8-0.7,3.6-0.8,5.4c-0.8,1.5-0.5,3.1-0.5,4.7
	c0,0.1-0.1,0.2-0.1,0.3C25.5,56.3,24.8,56.2,24.1,56"/>
<path class="st2" d="M85.3,55.7c-0.3-0.5,0.1-1.2-0.4-1.6c0.3-1.2-0.3-2.2-0.3-3.3c-0.4-0.4-0.7-0.9-1-1.4c-0.2-0.4-0.2-0.6-0.4-0.9
	c-1.4-1.9-2.1-3.9-3.2-5.8c0.2-1.3-1.4-1.7-2.3-2.3c-0.4-0.4-0.7-0.8-1-1.3c-0.1-0.2-0.3-0.2-0.5-0.5s0-0.2-0.1-0.3
	c-0.3-0.4-0.6-0.7-0.9-1.1c-0.1-0.1-0.3-0.1-0.5-0.2c-0.9-0.8-1.7-1.9-2.9-2.2c-2.5-0.8-5.1-1.2-6.9-2.9c-0.5,0-0.8-0.5-1.3-0.6
	c-0.1,0-0.4,0.1-0.5,0.1c-1.2-0.2-2.5-0.3-3.7-0.1c-1.9,0.2-3.8,0.1-5.7-0.2c-1.6,0.5-3.2,0.9-4.9,1.3c-0.1,0-0.1,0.2-0.2,0.2
	c-0.5,0.1-1,0.3-1.6,0.4c-0.1,0-0.2,0.2-0.4,0.3c-0.7,0.2-1.1,0.9-1.7,1.1c-0.9,0.5-1.9,0.9-3,1c-0.8,1-1.6,2-2.6,2.8
	c-0.4,0.2-0.9,0.3-1.3,0.3c-0.3,0.2-0.5,0.4-0.8,0.5c-0.4,0.3-0.8,0.6-1.1,0.9c-0.5,1.1-1.3,2.1-2.2,2.9c-0.1,0.2-0.2,0.5-0.2,0.7
	c-0.8,0.9-1.3,2.1-1.3,3.3c-0.6,0.7-1,1.6-1.2,2.5c-0.3,1.3,0,2.5-0.4,3.8c-0.1,0.8-0.6,1.6-0.8,2.5c1.4,0.2,2.8,0.1,4.3,0.4
	c0.2-0.4,0.3-0.9,0.3-1.4c0-0.6-0.2-1.1-0.4-1.6c0.8-1,0.6-2.2,0.8-3.3c0.1-0.5,0.7-0.8,1-1.1c0.5-1,1-2.2,1.7-3.2s1.7-1.6,2.6-2.5
	c0.4-0.6,0.4-1.1,0.8-1.7c0.6-0.6,1-1.2,1.6-1.8c1.5-1,2.8-1.3,4.2-2.2c0.8-0.4,1.4-1.5,2.2-1.7c0.5,0,0.8-0.1,1.3-0.1
	c0.2,0,0.5-0.2,0.7-0.2c1.1,0.1,2.3-0.1,3.2-0.7c1.9,0.1,4.1-0.4,5.7,0.8c2.1,0.4,4.5-0.2,6.4,1.3c0.5,0.6,1.1,1.1,1.7,1.6
	c0.6,0.3,1.2,0.5,1.8,0.6c0.3,0.2,0.8,0.3,1.2,0.5c0.8,0.8,1.2,2,2.4,2.5c0.1,0.1,0.2,0.1,0.3,0.4c0.8,0.7,2,1,2.4,2
	c0.3,0.5,1,0.7,1,1.3c0.4,1.5,0.8,2.9,1.3,4.3c0.9,1.1,2.4,2.1,2.2,3.7c0,0.2,0.2,0.4,0.2,0.6c0,0.6-0.1,1.2-0.2,1.7
	C82.3,56,83.8,55.8,85.3,55.7"/>
<path class="st2" d="M37.5,55.8c0.3-0.6,0.6-1.3,0.7-2.1c0-0.7-0.1-1.3-0.2-2c0-1.4,1-2.5,1.8-3.8c0.7-0.9,1.4-1.7,2.2-2.4
	c0.9-0.9,1.5-2,1.9-3.2c1.9-0.5,3.7-1.5,5.1-2.8c0.7-0.4,1.4-0.7,2.2-0.8s1.5,0.2,2.4,0.1c0.6-0.2,1.2-0.8,1.8-0.8
	c2.5-0.1,5.1,0.3,7.5,1.1c1.2,0.5,2.3,0.9,3.5,1.4c0.9,1.1,2.3,1.5,3.5,2.3c0.8,0.6,1.6,1,2.4,1.5c-0.1,0.5,0,1,0.2,1.4
	c0.3,0.3,0.6,0.5,0.8,0.8c0.2,0.2,0.6,0.4,0.8,0.6s0.3,0.4,0.6,0.6c0.4,0.6,0.7,1.2,1,1.8c0.3,0.9,0.7,1.8,1,2.7s1,1.4,1.2,2.2
	c0.1,0.3,0.1,0.7,0,1c-1.9-0.3-3.7-0.4-5.6-0.5c-0.1-0.7-0.4-1.2-0.5-1.9c-0.1-1.2-0.6-2.4-1.3-3.4c-0.2-0.2-0.6-0.5-0.8-0.7
	c-0.6-0.7-1.1-1.3-1.7-2c-0.8-0.7-1.2-1.7-2.2-2.3c-1.1-0.8-2.3-1.5-3.6-2.1c-0.7-0.2-1.3-0.4-2-0.5l-4.5-0.5
	c-0.6,0-1.2,0.1-1.8,0.2c-0.2,0.1-0.6,0.2-0.8,0.3c-0.2,0.3-0.6,0-0.8,0.4s-0.5,0.2-0.9,0.3c-0.6,0.2-1,0.3-1.4,0.3
	c-0.1,0-0.2,0.4-0.3,0.4c-1,0.4-1.6,0.5-2.3,1.3c-1.1,1.3-2.2,2.7-3.2,4.2c-0.4,0.5-0.7,1.2-0.9,1.8c-0.2,0.9-0.4,1.8-0.7,2.8
	c-0.3,0.3-0.5,0.6-0.8,1c-0.2,0.6-0.2,1.3-0.1,2C40.3,56.2,38.9,56.1,37.5,55.8"/>
<path class="st2" d="M44.6,56.1c0.3-0.5,0-1,0.2-1.5c0.4-0.8,0.9-1.5,1.3-2.3c0.1-0.3-0.1-0.7,0-1c0.5-1,1.2-1.9,2-2.7
	c1.2-1.3,2.7-2.4,4.3-3.3c1.7-0.3,3.3-0.4,5-0.5c1.4,0.5,2.9,0.8,4.4,0.7c1.1,0.7,2.1,1.5,3,2.5c0.6,0.5,1.3,0.9,2,1.1
	c1.1,1.8,1.9,3.7,2.5,5.6c-1.2,0.1-2.5,0.1-3.7,0.1c-0.3-0.5-0.8-1-0.8-1.5c-0.4-1.6-1.3-3-2.7-3.9c-0.5-0.3-1.1-0.5-1.7-0.6
	c-1.5-0.4-3-0.3-4.5-0.6c-1.6,0.3-3.2,0.8-4.7,1.6c-1,1.3-2.3,2.6-2.7,4.3l-0.1,2.5C47.1,56.5,45.9,56.5,44.6,56.1"/>
<path class="st3" d="M28.1,80.8h-0.3c-0.2,0-0.3,0-0.3-0.2v-2.1c0-0.2,0-0.5-0.1-0.7c-0.1-0.1-0.2-0.1-0.4-0.1
	c-0.4,0-0.8,0.2-1.1,0.4v2.5c0,0.2,0,0.2-0.2,0.2h-0.3c-0.2,0-0.3,0-0.3-0.2v-4.8c0-0.2,0-0.2,0.2-0.2h0.4c0.1,0,0.2,0.1,0.2,0.2
	v1.6c0.4-0.2,0.8-0.3,1.2-0.4c0.9,0,1.1,0.5,1.1,1v2.5C28.2,80.8,28.2,80.8,28.1,80.8"/>
<path class="st3" d="M31.7,78.3c0,0.1,0,0.2,0,0.3h-1.5v-0.2c0-0.7,0.1-0.9,0.8-0.9S31.7,77.8,31.7,78.3 M32.4,78.9
	c0-0.4,0-0.9-0.2-1.3s-0.6-0.5-1.2-0.5c-0.5-0.1-1,0.1-1.3,0.5c-0.2,0.4-0.3,0.9-0.2,1.4c-0.1,0.5,0,1.1,0.4,1.5
	c0.3,0.3,0.8,0.4,1.2,0.4c0.4,0,0.8,0,1.2-0.1c0.2,0,0.2-0.1,0.2-0.2s0-0.1,0-0.2c0-0.2,0-0.2-0.1-0.2c-0.4,0.1-0.8,0.2-1.2,0.2
	c-0.2,0-0.4,0-0.6-0.1c-0.3-0.1-0.3-0.6-0.3-1h2C32.4,79.2,32.4,79.2,32.4,78.9z"/>
<path class="st3" d="M35.8,79.9c-0.3,0.3-0.7,0.4-1.2,0.5c-0.3,0-0.4-0.2-0.4-0.6s0.2-0.6,1-0.6h0.5L35.8,79.9 M36.5,80.6v-2
	c0-0.8-0.1-1-0.3-1.2c-0.3-0.2-0.6-0.4-1-0.3c-0.4,0-0.9,0.1-1.3,0.2c-0.1,0-0.1,0.1-0.1,0.2v0.3c0,0.1,0,0.2,0.1,0.2H34
	c0.4-0.1,0.8-0.2,1.2-0.2c0.2,0,0.4,0.1,0.5,0.2c0.1,0.2,0.1,0.5,0.1,0.7c-0.6,0-1.1,0-1.7,0.2c-0.4,0.2-0.7,0.6-0.6,1.1
	c0,0.7,0.3,1.1,1,1.1c0.5,0,0.9-0.2,1.3-0.5v0.2c0,0.2,0,0.2,0.3,0.2h0.3C36.5,80.8,36.5,80.8,36.5,80.6L36.5,80.6z"/>
<path class="st3" d="M39.6,77.8h-0.8v2c0,0.3,0,0.4,0,0.4c0,0.1,0.2,0.2,0.3,0.1c0.2,0,0.5-0.1,0.7-0.1s0.1,0,0.1,0.1v0.3
	c0,0.2,0,0.2-0.2,0.2s-0.5,0-0.7,0c-0.7,0-0.9-0.2-0.9-1.1v-2h-0.2c-0.2,0-0.2,0-0.2-0.2v-0.2c0-0.1,0.1-0.2,0.2-0.2H38v-0.7
	c0-0.2,0-0.2,0.2-0.2h0.3c0.1,0,0.2,0.1,0.2,0.2v0.7h0.8c0.2,0,0.2,0,0.2,0.2v0.1C39.8,77.7,39.8,77.7,39.6,77.8"/>
<path class="st3" d="M43.1,78.3c0,0.1,0,0.2,0,0.3h-1.5v-0.2c0-0.7,0.1-0.9,0.8-0.9S43.1,77.8,43.1,78.3 M43.8,78.9
	c0-0.4,0-0.9-0.2-1.3s-0.6-0.5-1.2-0.5c-0.5-0.1-1,0.1-1.3,0.5c-0.2,0.4-0.3,0.9-0.2,1.4c-0.1,0.5,0,1.1,0.3,1.5
	c0.3,0.3,0.8,0.4,1.2,0.4s0.8,0,1.2-0.1c0.2,0,0.2-0.1,0.2-0.2s0-0.1,0-0.2c0-0.2,0-0.2-0.1-0.2c-0.4,0.1-0.8,0.2-1.2,0.2
	c-0.2,0-0.4,0-0.6-0.1c-0.3-0.1-0.3-0.6-0.3-1h2C43.8,79.2,43.8,79.2,43.8,78.9z"/>
<path class="st3" d="M47,77.8c-0.4,0-0.9,0.1-1.2,0.3v2.4c0,0.2,0,0.2-0.2,0.2h-0.3c-0.2,0-0.3,0-0.3-0.2v-3.2c0-0.2,0-0.2,0.2-0.2
	h0.4c0.1,0,0.2,0.1,0.2,0.2v0.2c0.3-0.3,0.7-0.4,1.2-0.4c0.1,0,0.2,0.1,0.2,0.2v0.3C47.1,77.8,47.1,77.8,47,77.8"/>
<path class="st3" d="M48.1,78.2H49v-0.8c0-0.1,0-0.2,0.1-0.3c0.2-0.2,0.4-0.2,0.6,0c0.1,0.1,0.1,0.2,0.1,0.3v0.8h0.8
	c0.1,0,0.2,0,0.3,0.1c0.2,0.1,0.2,0.4,0,0.5l0,0c-0.1,0.1-0.2,0.1-0.3,0.1h-0.8v0.8c0,0.1,0,0.2-0.1,0.3c-0.2,0.2-0.4,0.2-0.6,0
	c0,0-0.1-0.1-0.1-0.2V79h-0.9c-0.2,0-0.4-0.2-0.4-0.4C47.7,78.4,47.9,78.2,48.1,78.2L48.1,78.2"/>
<path class="st3" d="M53.8,77.8H53v2c0,0.3,0,0.4,0,0.4c0,0.1,0.2,0.2,0.3,0.1c0.2,0,0.5-0.1,0.7-0.1s0.1,0,0.1,0.1v0.3
	c0,0.2,0,0.2-0.2,0.2s-0.5,0-0.7,0c-0.7,0-0.9-0.2-0.9-1.1v-2H52c-0.2,0-0.2,0-0.2-0.2v-0.2c0-0.1,0.1-0.2,0.2-0.2h0.2v-0.7
	c0-0.2,0-0.2,0.2-0.2h0.3c0.1,0,0.2,0.1,0.2,0.2v0.7h0.8c0.2,0,0.2,0,0.2,0.2v0.1C54,77.7,54,77.7,53.8,77.8"/>
<path class="st3" d="M57.7,79c0,0.3,0,0.7-0.2,1c-0.1,0.2-0.3,0.3-0.8,0.3s-0.6,0-0.7-0.3c-0.2-0.6-0.2-1.4,0-2
	c0.1-0.3,0.3-0.3,0.8-0.3s0.6,0.1,0.8,0.3C57.7,78.3,57.7,78.7,57.7,79 M58.5,79c0-0.5-0.1-1-0.5-1.4c-0.3-0.3-0.8-0.5-1.3-0.5
	s-0.9,0.1-1.3,0.5C55.1,78,55,78.5,55,79c-0.1,0.5,0.1,1,0.4,1.4c0.3,0.3,0.8,0.5,1.3,0.5s0.9-0.1,1.3-0.5
	C58.3,80,58.5,79.5,58.5,79L58.5,79z"/>
<path class="st3" d="M62,80.8h-0.3c-0.2,0-0.3,0-0.3-0.2v-2.1c0-0.2,0-0.5-0.1-0.7c-0.1-0.1-0.2-0.1-0.4-0.1c-0.4,0-0.8,0.2-1.1,0.5
	v2.4c0,0.2,0,0.2-0.2,0.2h-0.3c-0.2,0-0.3,0-0.3-0.2v-3.2c0-0.2,0-0.2,0.2-0.2h0.3c0.1,0,0.2,0.1,0.2,0.2v0.1
	c0.3-0.3,0.8-0.5,1.2-0.5c0.9,0,1.1,0.5,1.1,1v2.5C62.2,80.8,62.2,80.8,62,80.8"/>
<path class="st3" d="M65.6,78.3c0,0.1,0,0.2,0,0.3h-1.5v-0.2c0-0.7,0.1-0.9,0.8-0.9S65.6,77.8,65.6,78.3 M66.3,78.9
	c0-0.4,0-0.9-0.2-1.3s-0.6-0.5-1.2-0.5c-0.5-0.1-1,0.1-1.3,0.5c-0.2,0.4-0.3,0.9-0.2,1.4c-0.1,0.5,0,1.1,0.3,1.5
	c0.3,0.3,0.8,0.4,1.2,0.4s0.8,0,1.2-0.1c0.2,0,0.2-0.1,0.2-0.2s0-0.1,0-0.2c0-0.2,0-0.2-0.1-0.2c-0.4,0.1-0.8,0.2-1.2,0.2
	c-0.2,0-0.4,0-0.6-0.1c-0.3-0.1-0.3-0.6-0.3-1h2C66.3,79.2,66.3,79.2,66.3,78.9z"/>
<path class="st3" d="M69.7,78.3c0,0.1,0,0.2,0,0.3h-1.5v-0.2c0-0.7,0.1-0.9,0.8-0.9S69.7,77.8,69.7,78.3 M70.4,78.9
	c0-0.4,0-0.9-0.2-1.3s-0.6-0.5-1.2-0.5c-0.5-0.1-1,0.1-1.3,0.5c-0.2,0.4-0.3,0.9-0.2,1.4c-0.1,0.5,0,1.1,0.3,1.5
	c0.3,0.3,0.8,0.4,1.2,0.4c0.4,0,0.8,0,1.2-0.1c0.2,0,0.2-0.1,0.2-0.2s0-0.1,0-0.2c0-0.2,0-0.2-0.1-0.2c-0.4,0.1-0.8,0.2-1.2,0.2
	c-0.2,0-0.4,0-0.6-0.1c-0.3-0.1-0.3-0.6-0.3-1h2C70.4,79.2,70.4,79.2,70.4,78.9z"/>
<path class="st3" d="M72.2,80.8h-0.3c-0.2,0-0.3,0-0.3-0.2v-4.8c0-0.2,0-0.2,0.2-0.2h0.3c0.1,0,0.2,0.1,0.2,0.2v4.8
	C72.3,80.8,72.3,80.8,72.2,80.8"/>
<path class="st3" d="M75.9,80.2c-0.3,0.1-0.7,0.2-1,0.2c-0.4,0-0.6-0.2-0.6-0.7c0-0.2,0-0.4,0-0.7c0-0.3,0.1-0.7,0.2-1
	c0.1-0.2,0.3-0.3,0.7-0.3s0.5,0,0.8,0L75.9,80.2 M76.6,81.2v-3.9c0-0.2,0-0.2-0.2-0.2c-0.4,0-0.7,0-1.1,0c-0.8,0-1.2,0.1-1.5,0.5
	s-0.4,1-0.4,1.5c0,1.3,0.4,1.8,1.3,1.8c0.4,0,0.7,0,1.1-0.1c0,0.2,0,0.4,0,0.6c0,0.3-0.2,0.4-0.7,0.4s-1-0.1-1.5-0.2
	c-0.1,0-0.1,0.1-0.1,0.2s0,0.2,0,0.3c0,0.1,0,0.2,0.1,0.2c0.5,0.1,1,0.2,1.4,0.2c0.5,0.1,1-0.1,1.3-0.5
	C76.7,81.7,76.7,81.5,76.6,81.2L76.6,81.2z"/>
<path class="st3" d="M79.9,77.8c-0.4,0-0.9,0.1-1.2,0.3v2.4c0,0.2,0,0.2-0.2,0.2h-0.3c-0.2,0-0.3,0-0.3-0.2v-3.2
	c0-0.2,0-0.2,0.2-0.2h0.4c0.1,0,0.2,0.1,0.2,0.2v0.2c0.3-0.3,0.7-0.4,1.2-0.4c0.1,0,0.2,0.1,0.2,0.2v0.3C80,77.8,80,77.8,79.9,77.8"
	/>
<path class="st3" d="M83.5,79c0,0.3,0,0.7-0.2,1c-0.1,0.2-0.3,0.3-0.8,0.3s-0.7-0.1-0.8-0.3c-0.2-0.6-0.2-1.4,0-2
	c0.1-0.3,0.3-0.3,0.8-0.3s0.6,0.1,0.8,0.3C83.5,78.3,83.5,78.7,83.5,79 M84.2,79c0.1-0.5-0.1-1-0.4-1.4c-0.3-0.3-0.8-0.5-1.3-0.5
	s-0.9,0.1-1.3,0.5C81,78,80.8,78.5,80.9,79c-0.1,0.5,0.1,1,0.4,1.4c0.3,0.3,0.8,0.5,1.3,0.5s0.9-0.1,1.3-0.5
	C84.1,80,84.3,79.5,84.2,79z"/>
<path class="st3" d="M87.6,78.3c0,0.1,0,0.2,0,0.3h-1.5v-0.2c0-0.7,0.1-0.9,0.8-0.9S87.6,77.8,87.6,78.3 M88.3,78.9
	c0-0.4,0-0.9-0.2-1.3s-0.6-0.5-1.2-0.5c-0.5-0.1-1,0.1-1.3,0.5c-0.2,0.4-0.3,0.9-0.2,1.4c-0.1,0.5,0,1.1,0.3,1.5
	c0.3,0.3,0.8,0.4,1.2,0.4c0.4,0,0.8,0,1.2-0.1c0.2,0,0.2-0.1,0.2-0.2s0-0.1,0-0.2c0-0.2,0-0.2-0.1-0.2c-0.4,0.1-0.8,0.2-1.2,0.2
	c-0.2,0-0.4,0-0.6-0.1c-0.3-0.1-0.3-0.6-0.3-1h2C88.3,79.2,88.3,79.2,88.3,78.9z"/>
<path class="st3" d="M92,79c0,0.8-0.1,1.2-0.4,1.3c-0.1,0.1-0.3,0.1-0.4,0.1c-0.3,0-0.6-0.1-0.9-0.2v-2c0.4-0.2,0.8-0.4,1.2-0.5
	c0.2,0,0.4,0.2,0.4,0.4C92,78.4,92,78.7,92,79 M92.7,79c0.1-0.5-0.1-1.1-0.4-1.5c-0.2-0.2-0.5-0.3-0.8-0.3c-0.5,0-0.9,0.2-1.3,0.5
	v-0.1c0-0.1,0-0.2-0.2-0.2h-0.3c-0.2,0-0.2,0-0.2,0.2v4.8c0,0.2,0,0.2,0.3,0.2h0.3c0.1,0,0.2,0,0.2-0.2V81c0.3,0.1,0.6,0.1,0.9,0.1
	c0.6,0.1,1.1-0.2,1.4-0.7C92.7,79.8,92.8,79.4,92.7,79L92.7,79z"/>
<path class="st2" d="M51.3,55.5c0.5-0.8,0.8-1.8,0.9-2.7c0.1-0.3,0.5-0.3,0.8-0.5s0.7-0.8,1.2-1s0.6-0.4,1-0.4
	c1.4,0.2,3,0.3,4.4,0.6c0.5,0.5,1,0.5,1.5,0.9c0.6,0.7,0.9,1.7,1.5,2.5c-0.7,0.2-1.3,0.9-2.2,1c-2.5,0.1-4.9,0.4-7.4,0.8
	c-0.7,0-1.4-0.1-2.1-0.2C51.1,56.2,51.3,55.9,51.3,55.5"/>
<path class="st3" d="M23.6,77.8h-0.8v2c0,0.3,0,0.4,0,0.4c0,0.1,0.2,0.2,0.3,0.1c0.2,0,0.5-0.1,0.7-0.1s0.1,0,0.1,0.1v0.3
	c0,0.2,0,0.2-0.2,0.2s-0.5,0-0.7,0c-0.7,0-0.9-0.2-0.9-1.1v-2h-0.2c-0.2,0-0.2,0-0.2-0.2v-0.2c0-0.1,0.1-0.2,0.2-0.2H22v-0.7
	c0-0.2,0-0.2,0.2-0.2h0.4c0.1,0,0.2,0.1,0.2,0.2v0.7h0.8c0.2,0,0.2,0,0.2,0.2v0.1C23.8,77.7,23.8,77.7,23.6,77.8"/>
</svg>
